<?xml version="1.0" standalone="no"?>
<!DOCTYPE svg PUBLIC "-//W3C//DTD SVG 20010904//EN"
 "http://www.w3.org/TR/2001/REC-SVG-20010904/DTD/svg10.dtd">
<svg version="1.0" xmlns="http://www.w3.org/2000/svg"
 width="512.000000pt" height="512.000000pt" viewBox="0 0 512.000000 512.000000"
 preserveAspectRatio="xMidYMid meet">
<metadata>
Created by potrace 1.14, written by Peter Selinger 2001-2017
</metadata>
<g transform="translate(0.000000,512.000000) scale(0.100000,-0.100000)"
fill="#000000" stroke="none">
<path d="M1415 5070 c-352 -33 -669 -183 -925 -440 -259 -259 -405 -566 -440
-929 -12 -125 -12 -2167 0 -2292 35 -363 181 -670 440 -929 225 -226 472 -357
792 -422 l113 -23 1170 0 1170 0 113 23 c320 65 567 196 792 422 259 259 405
566 440 929 12 125 12 2167 0 2292 -35 363 -181 670 -440 929 -223 224 -468
355 -787 422 l-108 22 -1125 2 c-619 1 -1161 -2 -1205 -6z m1308 -230 c110
-118 200 -295 234 -458 21 -105 13 -298 -17 -402 -63 -220 -201 -437 -352
-555 -305 -238 -734 -229 -1193 26 -271 150 -444 327 -560 572 -64 133 -89
245 -88 387 1 78 7 137 19 184 l19 69 80 48 c139 84 336 157 481 178 32 5 343
9 690 10 l632 1 55 -60z m1115 35 c42 -8 106 -24 142 -36 79 -26 290 -126 290
-138 0 -11 489 -2393 494 -2408 4 -9 19 -8 63 2 32 8 64 14 71 15 18 0 17
-817 -2 -960 -54 -397 -328 -788 -687 -979 -47 -25 -84 -40 -90 -34 -8 8 -42
171 -146 688 -19 99 -37 181 -38 183 -2 2 -95 -15 -207 -38 -504 -103 -827
-170 -1018 -210 -340 -72 -943 -190 -947 -186 -7 7 -25 90 -81 371 l-48 240
971 1758 970 1758 93 -6 c51 -3 127 -12 170 -20z m-3211 -1477 l143 -222 -74
-26 c-100 -35 -174 -82 -260 -162 -113 -104 -162 -225 -154 -377 6 -96 30
-170 81 -247 110 -167 352 -315 563 -345 208 -29 402 78 498 273 32 64 66 183
55 192 -13 11 -202 116 -209 116 -5 0 -37 -52 -72 -115 -35 -63 -68 -114 -74
-113 -23 6 -417 234 -421 244 -2 5 86 167 195 360 137 240 204 349 215 348 9
-1 212 -113 452 -249 339 -193 439 -254 447 -274 19 -44 14 -285 -6 -381 -91
-425 -336 -765 -645 -895 -121 -51 -194 -66 -341 -72 -153 -6 -256 9 -402 57
-97 33 -262 113 -344 167 l-54 36 2 896 3 896 45 25 c41 22 198 90 210 90 3 0
69 -100 147 -222z"/>
<path d="M1535 4786 c-22 -7 -54 -20 -71 -29 -46 -24 -125 -115 -159 -183 -26
-51 -30 -70 -30 -144 0 -71 4 -94 26 -140 62 -132 217 -267 424 -369 171 -85
246 -106 375 -106 98 0 109 2 158 29 79 44 139 129 168 241 53 198 -72 394
-360 564 -214 126 -407 176 -531 137z"/>
<path d="M3187 2525 c-191 -346 -345 -630 -343 -632 5 -5 900 178 907 186 5 5
-197 1014 -212 1060 -3 8 -161 -269 -352 -614z"/>
</g>
</svg>
